<svg width="38" height="38" viewBox="0 0 38 38" fill="none" xmlns="http://www.w3.org/2000/svg">
<path d="M16.4811 19L9.43032 11.9493C9.09569 11.6152 8.90746 11.1619 8.90705 10.6891C8.90663 10.2163 9.09405 9.76267 9.42809 9.42805C9.76213 9.09342 10.2154 8.90519 10.6882 8.90477C11.1611 8.90436 11.6147 9.09178 11.9493 9.42582L19.0001 16.4766L26.0509 9.42582C26.3855 9.09119 26.8393 8.9032 27.3126 8.9032C27.7858 8.9032 28.2397 9.09119 28.5743 9.42582C28.9089 9.76045 29.0969 10.2143 29.0969 10.6875C29.0969 11.1608 28.9089 11.6146 28.5743 11.9493L21.5235 19L28.5743 26.0508C28.9089 26.3854 29.0969 26.8393 29.0969 27.3125C29.0969 27.7858 28.9089 28.2396 28.5743 28.5743C28.2397 28.9089 27.7858 29.0969 27.3126 29.0969C26.8393 29.0969 26.3855 28.9089 26.0509 28.5743L19.0001 21.5235L11.9493 28.5743C11.6147 28.9089 11.1608 29.0969 10.6876 29.0969C10.2143 29.0969 9.76049 28.9089 9.42587 28.5743C9.09124 28.2396 8.90324 27.7858 8.90324 27.3125C8.90324 26.8393 9.09124 26.3854 9.42587 26.0508L16.4811 19Z" fill="white"/>
</svg>
